<!-- Generated by IcoMoon.io -->
<svg version="1.1" xmlns="http://www.w3.org/2000/svg" width="878" height="1024" viewBox="0 0 878 1024">
<title></title>
<g id="icomoon-ignore">
</g>
<path d="M23.523 12.568c-0.725-0.811-1.564-1.21-2.514-1.21-1.076 0-1.898 0.388-2.475 1.158s-0.863 1.701-0.863 2.796c0 0.932 0.156 1.882 0.473 2.851 0.313 0.968 0.827 1.833 1.548 2.593 0.719 0.765 1.551 1.145 2.501 1.145 1.059 0 1.882-0.355 2.475-1.063 0.588-0.706 0.886-1.6 0.886-2.675 0-0.918-0.156-1.875-0.47-2.874-0.313-1.004-0.834-1.911-1.56-2.715zM43.505 2.542c-1.689-1.692-3.719-2.534-6.097-2.534h-28.765c-2.38 0-4.41 0.843-6.097 2.534-1.692 1.685-2.534 3.719-2.534 6.097v28.765c0 2.38 0.843 4.413 2.534 6.1 1.692 1.682 3.725 2.528 6.097 2.528h28.765c2.38 0 4.413-0.847 6.097-2.534 1.692-1.692 2.534-3.719 2.534-6.097v-28.765c0-2.38-0.846-4.413-2.534-6.097zM34.039 11.94v10.281c0 0.477-0.391 0.866-0.866 0.866h-0.319c-0.477 0-0.866-0.391-0.866-0.866v-10.281c0-0.421-0.061-0.775 0.529-0.85v-1.37l-4.548 3.731c0.054 0.097 0.103 0.159 0.152 0.241 0.398 0.706 0.604 1.587 0.604 2.665 0 0.824-0.136 1.564-0.417 2.219s-0.614 1.187-1.010 1.6-0.788 0.791-1.181 1.131c-0.395 0.342-0.732 0.696-1.010 1.063s-0.417 0.748-0.417 1.142 0.179 0.795 0.539 1.2c0.359 0.405 0.797 0.797 1.318 1.184 0.519 0.385 1.040 0.814 1.56 1.276s0.958 1.062 1.315 1.787c0.362 0.728 0.539 1.531 0.539 2.41 0 1.161-0.296 2.213-0.889 3.143s-1.364 1.672-2.314 2.216c-0.952 0.549-1.967 0.961-3.052 1.24-1.086 0.274-2.167 0.417-3.242 0.417-0.68 0-1.367-0.054-2.055-0.159-0.693-0.107-1.387-0.299-2.084-0.565-0.702-0.27-1.321-0.601-1.856-0.997-0.539-0.394-0.971-0.899-1.305-1.518s-0.496-1.312-0.496-2.084c0-0.915 0.254-1.764 0.768-2.554 0.512-0.785 1.187-1.442 2.032-1.963 1.469-0.915 3.774-1.479 6.906-1.692-0.719-0.896-1.079-1.741-1.079-2.528 0-0.45 0.116-0.932 0.349-1.449-0.375 0.054-0.762 0.083-1.155 0.083-1.685 0-3.107-0.549-4.263-1.652s-1.731-2.479-1.731-4.145c0-0.175 0.005-0.326 0.018-0.496h-6.846l10.321-8.971h17.091l-1.58 1.233v2.177c0.585 0.077 0.526 0.427 0.526 0.85zM23.618 27.913c-0.198-0.035-0.473-0.057-0.83-0.057-0.771 0-1.531 0.067-2.272 0.202-0.745 0.132-1.479 0.355-2.203 0.673-0.728 0.313-1.315 0.775-1.761 1.384-0.45 0.608-0.673 1.325-0.673 2.153 0 0.788 0.198 1.488 0.591 2.101 0.394 0.607 0.915 1.083 1.56 1.423s1.324 0.598 2.032 0.768c0.709 0.169 1.43 0.254 2.164 0.254 1.453 0 2.704-0.326 3.751-0.981s1.571-1.662 1.571-3.026c0-0.287-0.038-0.568-0.12-0.846-0.083-0.277-0.162-0.516-0.244-0.716-0.080-0.195-0.231-0.427-0.457-0.699s-0.395-0.47-0.512-0.604c-0.116-0.136-0.339-0.332-0.66-0.591s-0.526-0.421-0.617-0.483-0.323-0.234-0.702-0.512c-0.375-0.277-0.584-0.427-0.617-0.444z"></path>
</svg>
