<!-- Generated by IcoMoon.io -->
<svg version="1.1" xmlns="http://www.w3.org/2000/svg" width="1024" height="1024" viewBox="0 0 1024 1024">
<title></title>
<g id="icomoon-ignore">
</g>
<path d="M38.954 5.153v-3.28l2.381-1.858h-25.762l-15.557 13.522h10.317c-0.019 0.256-0.027 0.487-0.027 0.751 0 2.511 0.869 4.587 2.61 6.247 1.742 1.661 3.884 2.488 6.423 2.488 0.594 0 1.176-0.045 1.739-0.123-0.351 0.782-0.528 1.508-0.528 2.185 0 1.19 0.542 2.462 1.624 3.812-4.726 0.323-8.197 1.173-10.412 2.549-1.268 0.782-2.289 1.771-3.058 2.955-0.771 1.193-1.155 2.471-1.155 3.85 0 1.161 0.247 2.208 0.751 3.139s1.155 1.696 1.965 2.286c0.808 0.597 1.742 1.098 2.798 1.502 1.051 0.404 2.098 0.69 3.139 0.852 1.040 0.161 2.072 0.242 3.096 0.242 1.624 0 3.246-0.21 4.885-0.626 1.633-0.421 3.165-1.042 4.598-1.867 1.43-0.82 2.592-1.939 3.483-3.338 0.889-1.407 1.338-2.989 1.338-4.737 0-1.326-0.27-2.535-0.814-3.63-0.539-1.092-1.198-1.994-1.982-2.691-0.782-0.701-1.566-1.343-2.352-1.924-0.782-0.583-1.444-1.176-1.985-1.786-0.539-0.609-0.811-1.21-0.811-1.806 0-0.594 0.21-1.164 0.629-1.719 0.415-0.557 0.924-1.089 1.52-1.603 0.594-0.513 1.19-1.080 1.783-1.702 0.594-0.62 1.1-1.424 1.52-2.41s0.626-2.101 0.626-3.344c0-1.621-0.308-2.948-0.91-4.012-0.071-0.123-0.146-0.218-0.227-0.363l6.854-5.622v2.063c-0.892 0.111-0.797 0.644-0.797 1.283v15.497c0 0.719 0.589 1.306 1.306 1.306h0.482c0.719 0 1.306-0.589 1.306-1.306v-15.497c0-0.635 0.094-1.167-0.791-1.28zM26.024 31.949c0.137 0.091 0.447 0.334 0.93 0.728 0.487 0.392 0.82 0.687 0.996 0.892 0.172 0.201 0.432 0.502 0.768 0.91 0.34 0.406 0.568 0.759 0.69 1.051 0.12 0.299 0.242 0.658 0.366 1.077 0.12 0.415 0.178 0.84 0.178 1.273 0 2.055-0.791 3.575-2.367 4.561-1.58 0.985-3.465 1.479-5.654 1.479-1.106 0-2.193-0.132-3.26-0.386-1.066-0.256-2.086-0.644-3.058-1.158s-1.757-1.231-2.349-2.144c-0.594-0.921-0.892-1.976-0.892-3.162 0-1.242 0.337-2.323 1.014-3.24 0.675-0.918 1.558-1.612 2.653-2.086 1.092-0.476 2.199-0.811 3.321-1.011 1.121-0.204 2.266-0.308 3.425-0.308 0.539 0 0.956 0.030 1.254 0.084 0.054 0.027 0.366 0.25 0.933 0.67 0.566 0.418 0.918 0.675 1.054 0.768zM25.619 19.835c-0.892 1.069-2.136 1.601-3.728 1.601-1.43 0-2.685-0.574-3.766-1.725-1.083-1.147-1.858-2.448-2.329-3.908-0.476-1.459-0.713-2.89-0.713-4.295 0-1.65 0.432-3.055 1.3-4.214 0.866-1.163 2.109-1.745 3.726-1.745 1.43 0 2.696 0.606 3.786 1.826 1.095 1.216 1.881 2.581 2.352 4.093 0.473 1.511 0.707 2.954 0.707 4.335 0 1.621-0.447 2.965-1.335 4.029z"></path>
</svg>
