<?xml version="1.0" encoding="UTF-8" standalone="no"?>
<!-- Generated by IcoMoon.io -->

<svg
   xmlns:dc="http://purl.org/dc/elements/1.1/"
   xmlns:cc="http://creativecommons.org/ns#"
   xmlns:rdf="http://www.w3.org/1999/02/22-rdf-syntax-ns#"
   xmlns:svg="http://www.w3.org/2000/svg"
   xmlns="http://www.w3.org/2000/svg"
   xmlns:sodipodi="http://sodipodi.sourceforge.net/DTD/sodipodi-0.dtd"
   xmlns:inkscape="http://www.inkscape.org/namespaces/inkscape"
   version="1.1"
   width="1024"
   height="1024"
   viewBox="0 0 1024 1024"
   id="svg3368"
   inkscape:version="0.91 r13725"
   sodipodi:docname="researchgate1.svg">
  <metadata
     id="metadata3379">
    <rdf:RDF>
      <cc:Work
         rdf:about="">
        <dc:format>image/svg+xml</dc:format>
        <dc:type
           rdf:resource="http://purl.org/dc/dcmitype/StillImage" />
      </cc:Work>
    </rdf:RDF>
  </metadata>
  <defs
     id="defs3377" />
  <sodipodi:namedview
     pagecolor="#ffffff"
     bordercolor="#666666"
     borderopacity="1"
     objecttolerance="10"
     gridtolerance="10"
     guidetolerance="10"
     inkscape:pageopacity="0"
     inkscape:pageshadow="2"
     inkscape:window-width="1366"
     inkscape:window-height="719"
     id="namedview3375"
     showgrid="false"
     inkscape:zoom="1.4998398"
     inkscape:cx="255.67087"
     inkscape:cy="988.99058"
     inkscape:window-x="0"
     inkscape:window-y="25"
     inkscape:window-maximized="1"
     inkscape:current-layer="svg3368" />
  <title
     id="title3370" />
  <g
     id="icomoon-ignore" />
  <path
     d="m 25.492636,36.869544 c -2.276341,-2.288959 -5.321707,-5.964501 -7.854646,-10.119985 4.186225,-0.904509 7.283832,-4.536032 7.283832,-8.164005 0,-5.347532 -4.495832,-7.830316 -10.386048,-7.830316 -3.046134,0 -5.4768948,0.141995 -7.7440173,0.141995 -2.070449,0 -4.1385933,0 -5.4284946,-0.04686 l 0,1.387292 1.9613567,0.332268 c 1.3498253,0.239262 2.1180809,0.809372 2.1180809,3.772098 l 0,18.809372 c 0,2.962016 -0.7682556,3.534256 -2.1180809,3.770678 l -1.9613567,0.33937 0,1.380901 c 1.3943841,-0.04686 3.822072,-0.140575 6.2512964,-0.140575 2.3247417,0 5.3217065,0.09443 6.6131445,0.140575 l 0,-1.380901 -2.688895,-0.339368 C 10.144425,38.735359 9.4184229,38.113421 9.4184229,35.151405 l 0,-7.973021 c 1.2399651,0.09585 2.3247411,0.09585 3.9818691,0.09585 3.151385,5.204118 6.147582,9.119631 7.850036,10.932198 1.55495,1.720979 3.92886,2.818601 6.923521,2.818601 0.877348,0 1.806937,-0.141995 2.37391,-0.383387 l 0,-1.239616 c -1.859947,0 -3.719126,-1.196308 -5.057428,-2.533192 z M 13.140622,25.125135 c -1.757769,0 -2.529098,-0.04331 -3.7206626,-0.146964 l 0,-11.978701 c 1.1931006,-0.09585 2.7903046,-0.09585 4.1862246,-0.09585 4.342182,0 6.922752,2.103657 6.922752,5.919773 0,3.772098 -2.788768,6.301739 -7.387546,6.301739 z m 15.77152,-12.051828 c -0.05224,-0.250621 -0.09834,-0.543131 -0.139822,-0.881079 -0.04225,-0.340788 -0.07068,-0.739794 -0.08835,-1.211927 -0.0169,-0.468584 -0.02382,-1.040824 -0.02382,-1.696131 0,-0.658147 0.0077,-1.223287 0.02382,-1.6932914 0.0169,-0.472133 0.04533,-0.876109 0.08835,-1.213347 0.04149,-0.335819 0.08835,-0.629748 0.139822,-0.881079 0.0507,-0.253462 0.116007,-0.492013 0.201283,-0.728435 0.44482,-1.242457 1.172358,-2.176074 2.192602,-2.802272 1.01717,-0.626908 2.264049,-0.940717 3.745246,-0.940717 0.76211,0 1.452772,0.08165 2.063535,0.248491 0.605386,0.164715 1.147774,0.391907 1.627934,0.682286 0.473245,0.28825 0.880421,0.626908 1.218453,1.011005 0.345715,0.385517 0.624592,0.797302 0.842009,1.237487 0.08451,0.140575 0.05992,0.253461 -0.07529,0.330848 l -1.879921,0.714945 c -0.159029,0.0781 -0.271194,0.03834 -0.360312,-0.117146 -0.421772,-0.722045 -0.781316,-1.197018 -1.374409,-1.542776 -0.598472,-0.342918 -1.152384,-0.506922 -2.063535,-0.506922 -0.99105,0 -1.435102,0.181754 -2.055852,0.593539 -0.616141,0.403266 -1.068644,0.910898 -1.33446,1.681931 -0.05378,0.139155 -0.102178,0.311679 -0.159029,0.514732 -0.04686,0.205893 -0.08451,0.459354 -0.109093,0.754704 -0.02458,0.29535 -0.04686,0.662407 -0.06684,1.094782 -0.01383,0.4323744 -0.02074,0.9570464 -0.02074,1.5640754 0,0.610578 0.0077,1.13525 0.02074,1.566915 0.02074,0.429535 0.04225,0.797302 0.06684,1.093362 0.02382,0.299609 0.06146,0.54952 0.109093,0.758253 0.05762,0.199503 0.106019,0.372027 0.159029,0.513312 0.265816,0.768193 0.647639,1.189919 1.209234,1.527157 0.553912,0.342208 1.190028,0.588569 2.181846,0.588569 0.880421,0 1.686321,-0.232162 2.212576,-0.585729 0.52011,-0.353568 0.953406,-0.820732 1.147006,-1.459709 0.08451,-0.268371 0.194369,-0.603479 0.26889,-1.012425 0.06684,-0.409655 0.06684,-0.84345 0.06684,-1.441249 0,-0.09443 -0.05762,-0.141995 -0.152115,-0.141995 l -3.01233,0 c -0.169785,0 -0.251988,-0.07668 -0.251988,-0.232872 l 0,-1.596024 c 0,-0.158325 0.08297,-0.235712 0.251988,-0.235712 l 5.526831,0 c 0.172858,0 0.255061,0.07668 0.255061,0.235712 l 0,1.364572 c 0,0.722045 0,1.392261 -0.0822,2.012069 -0.07759,0.621229 -0.183613,1.15797 -0.315753,1.549876 -0.422541,1.226837 -1.090923,2.100107 -2.118081,2.749734 -1.029463,0.656017 -2.35624,1.008165 -3.795183,1.008165 -1.481966,0 -2.728076,-0.314519 -3.745247,-0.940007 C 30.287325,15.975686 29.55825,15.047038 29.114199,13.805292 29.029689,13.571 28.96362,13.328898 28.912916,13.075437 Z"
     id="path3373"
     inkscape:connector-curvature="0" />
</svg>
