<!-- Generated by IcoMoon.io -->
<svg version="1.1" xmlns="http://www.w3.org/2000/svg" width="878" height="1024" viewBox="0 0 878 1024">
<title></title>
<g id="icomoon-ignore">
</g>
<path d="M444.702 392.534c-8.268-9.241-17.868-13.838-28.707-13.838-12.275 0-21.681 4.422-28.256 13.232-6.559 8.791-9.846 19.43-9.846 31.937 0 10.651 1.792 21.49 5.394 32.554 3.583 11.056 9.452 20.924 17.67 29.609 8.193 8.722 17.721 13.068 28.551 13.068 12.075 0 21.501-4.046 28.257-12.133 6.73-8.071 10.109-18.265 10.109-30.556 0-10.461-1.79-21.414-5.369-32.858-3.567-11.457-9.517-21.813-17.817-31.017zM673.035 277.966c-19.281-19.306-42.502-28.938-69.677-28.938h-328.716c-27.173 0-50.379 9.631-69.677 28.938-19.306 19.259-28.938 42.502-28.938 69.677v328.716c0 27.173 9.631 50.417 28.938 69.723 19.311 19.215 42.55 28.89 69.677 28.89h328.716c27.173 0 50.402-9.679 69.677-28.938 19.311-19.311 28.952-42.502 28.952-69.677v-328.716c0-27.173-9.649-50.417-28.952-69.677zM564.867 385.344v117.484c0 5.441-4.455 9.89-9.89 9.89h-3.637c-5.441 0-9.89-4.455-9.89-9.89v-117.484c0-4.828-0.707-8.86 6.049-9.715v-15.632l-51.957 42.621c0.606 1.11 1.167 1.825 1.712 2.757 4.565 8.080 6.887 18.131 6.887 30.425 0 9.419-1.563 17.871-4.75 25.348-3.172 7.473-7.019 13.564-11.52 18.262-4.489 4.718-8.999 9.024-13.51 12.903-4.511 3.894-8.367 7.939-11.523 12.147-3.174 4.192-4.759 8.531-4.759 13.032s2.055 9.075 6.151 13.689c4.083 4.619 9.097 9.097 15.040 13.528 5.946 4.389 11.884 9.273 17.82 14.58 5.95 5.307 10.938 12.115 15.022 20.399 4.112 8.31 6.164 17.469 6.164 27.527 0 13.265-3.383 25.256-10.131 35.915-6.761 10.622-15.578 19.091-26.415 25.307-10.865 6.263-22.47 10.964-34.861 14.153-12.41 3.149-24.726 4.737-37.027 4.737-7.765 0-15.599-0.602-23.47-1.825-7.906-1.233-15.829-3.401-23.794-6.454-7.992-3.074-15.073-6.854-21.197-11.391-6.151-4.487-11.095-10.274-14.898-17.341s-5.676-14.985-5.676-23.794c0-10.45 2.909-20.142 8.748-29.178 5.835-8.969 13.561-16.46 23.189-22.404 16.783-10.438 43.105-16.881 78.926-19.321-8.193-10.241-12.301-19.873-12.301-28.89 0-5.131 1.336-10.635 3.994-16.563-4.283 0.602-8.693 0.937-13.185 0.937-19.248 0-35.493-6.263-48.701-18.854-13.199-12.575-19.788-28.321-19.788-47.355 0-1.989 0.051-3.739 0.204-5.684h-78.218l117.933-102.516h195.307l-18.050 14.087v24.87c6.698 0.866 6 4.883 6 9.711zM445.787 567.884c-2.252-0.411-5.416-0.641-9.5-0.641-8.798 0-17.469 0.773-25.963 2.33-8.498 1.511-16.888 4.060-25.166 7.673-8.301 3.579-15.007 8.85-20.117 15.808-5.142 6.953-7.688 15.139-7.688 24.573 0 8.985 2.252 16.99 6.757 23.975 4.489 6.932 10.435 12.363 17.802 16.257 7.38 3.896 15.106 6.834 23.189 8.761 8.091 1.923 16.322 2.911 24.705 2.911 16.585 0 30.88-3.731 42.853-11.205 11.95-7.473 17.948-19.002 17.948-34.567 0-3.271-0.453-6.493-1.363-9.649-0.937-3.178-1.867-5.901-2.778-8.169-0.909-2.219-2.648-4.89-5.219-7.972-2.548-3.091-4.511-5.375-5.826-6.887-1.336-1.563-3.854-3.805-7.545-6.768-3.666-2.975-6-4.825-7.052-5.507-1.034-0.72-3.698-2.673-7.992-5.835-4.29-3.185-6.651-4.882-7.056-5.079z"></path>
</svg>
