<?xml version="1.0" encoding="UTF-8" standalone="no"?>
<!-- Generated by IcoMoon.io -->

<svg
   xmlns:dc="http://purl.org/dc/elements/1.1/"
   xmlns:cc="http://creativecommons.org/ns#"
   xmlns:rdf="http://www.w3.org/1999/02/22-rdf-syntax-ns#"
   xmlns:svg="http://www.w3.org/2000/svg"
   xmlns="http://www.w3.org/2000/svg"
   xmlns:sodipodi="http://sodipodi.sourceforge.net/DTD/sodipodi-0.dtd"
   xmlns:inkscape="http://www.inkscape.org/namespaces/inkscape"
   version="1.1"
   width="1024"
   height="1024"
   viewBox="0 0 1024 1024"
   id="svg3368"
   inkscape:version="0.91 r13725"
   sodipodi:docname="researchgate1.svg">
  <metadata
     id="metadata3379">
    <rdf:RDF>
      <cc:Work
         rdf:about="">
        <dc:format>image/svg+xml</dc:format>
        <dc:type
           rdf:resource="http://purl.org/dc/dcmitype/StillImage" />
      </cc:Work>
    </rdf:RDF>
  </metadata>
  <defs
     id="defs3377" />
  <sodipodi:namedview
     pagecolor="#ffffff"
     bordercolor="#666666"
     borderopacity="1"
     objecttolerance="10"
     gridtolerance="10"
     guidetolerance="10"
     inkscape:pageopacity="0"
     inkscape:pageshadow="2"
     inkscape:window-width="1366"
     inkscape:window-height="719"
     id="namedview3375"
     showgrid="false"
     inkscape:zoom="1.4998398"
     inkscape:cx="255.67087"
     inkscape:cy="988.99058"
     inkscape:window-x="0"
     inkscape:window-y="25"
     inkscape:window-maximized="1"
     inkscape:current-layer="svg3368" />
  <title
     id="title3370" />
  <g
     id="icomoon-ignore" />
  <path
     d="m 24.587784,36.973432 c -2.190978,-2.231735 -5.122143,-5.815388 -7.560097,-9.866985 4.029242,-0.881896 7.010689,-4.42263 7.010689,-7.959904 0,-5.213843 -4.327239,-7.634557 -9.996571,-7.634557 -2.931904,0 -5.2715116,0.138445 -7.4536169,0.138445 -1.9928072,0 -3.983396,0 -5.224926,-0.04569 l 0,1.352609 1.8878058,0.323962 c 1.2992068,0.23328 2.0386528,0.789137 2.0386528,3.677795 l 0,18.339135 c 0,2.887966 -0.739446,3.4459 -2.0386528,3.676411 l -1.8878058,0.330886 0,1.346378 c 1.3420946,-0.04569 3.6787442,-0.137061 6.0168727,-0.137061 2.2375639,0 5.1221422,0.09207 6.3651512,0.137061 l 0,-1.346378 -2.588061,-0.330884 C 9.8151312,38.792601 9.1163542,38.186212 9.1163542,35.298246 l 0,-7.773694 c 1.1934658,0.09345 2.2375638,0.09345 3.8325488,0.09345 3.033208,5.074015 5.917048,8.89164 7.555659,10.658892 1.49664,1.677955 3.781529,2.748136 6.663889,2.748136 0.844448,0 1.739178,-0.138445 2.284889,-0.373802 l 0,-1.208626 c -1.790199,0 -3.579658,-1.1664 -4.867775,-2.469862 z M 12.69897,25.522634 c -1.691852,0 -2.434256,-0.04223 -3.5811369,-0.14329 l 0,-11.679232 c 1.1483599,-0.09345 2.6856679,-0.09345 4.0292409,-0.09345 4.179351,0 6.663149,2.051066 6.663149,5.771778 0,3.677796 -2.684189,6.144195 -7.110513,6.144195 z M 27.879059,13.772103 c -0.05028,-0.244355 -0.09465,-0.529553 -0.134579,-0.859052 -0.04066,-0.332268 -0.06803,-0.721299 -0.08504,-1.181628 -0.01627,-0.45687 -0.02292,-1.014804 -0.02292,-1.653728 0,-0.641693 0.0074,-1.192705 0.02292,-1.650959 0.01627,-0.4603296 0.04363,-0.8542061 0.08504,-1.1830131 0.03993,-0.3274235 0.08504,-0.6140043 0.134579,-0.859052 0.0488,-0.2471254 0.111657,-0.4797126 0.193735,-0.710224 0.428138,-1.2113955 1.128394,-2.1216719 2.110378,-2.7322149 0.979027,-0.6112353 2.179148,-0.917199 3.6048,-0.917199 0.73353,0 1.398293,0.079609 1.986153,0.2422787 0.582683,0.1605971 1.104732,0.3821093 1.566886,0.6652288 0.455498,0.2810437 0.847405,0.6112352 1.172761,0.9857297 0.33275,0.3758791 0.60117,0.7773694 0.810434,1.2065497 0.08134,0.1370606 0.05767,0.2471245 -0.07247,0.3225768 L 37.442313,6.144468 c -0.153065,0.076148 -0.261024,0.037382 -0.3468,-0.1142173 C 36.689557,5.3262569 36.343496,4.8631582 35.772644,4.5260442 35.196615,4.1916992 34.663475,4.0317953 33.786492,4.0317953 c -0.953886,0 -1.381286,0.1772102 -1.978758,0.5787005 -0.593035,0.3931843 -1.02857,0.8881254 -1.284417,1.6398825 -0.05177,0.1356761 -0.09834,0.303887 -0.153066,0.5018637 -0.0451,0.2007456 -0.08134,0.4478701 -0.105002,0.7358363 -0.02366,0.2879662 -0.0451,0.6458467 -0.06433,1.0674127 -0.01331,0.421565 -0.01996,0.93312 -0.01996,1.524973 0,0.595313 0.0074,1.106869 0.01996,1.527742 0.01996,0.418797 0.04066,0.777369 0.06433,1.066028 0.02292,0.292119 0.05915,0.535782 0.105002,0.739296 0.05546,0.194516 0.102043,0.362727 0.153066,0.50048 0.255847,0.748988 0.623352,1.16017 1.163887,1.488977 0.533141,0.333653 1.145402,0.573855 2.100026,0.573855 0.847406,0 1.623084,-0.226358 2.129605,-0.571086 0.500606,-0.344728 0.917654,-0.800213 1.103994,-1.423216 0.08134,-0.261661 0.187079,-0.588392 0.258806,-0.987114 0.06433,-0.399414 0.06433,-0.822364 0.06433,-1.405218 0,-0.09207 -0.05546,-0.138445 -0.14641,-0.138445 l -2.899367,0 c -0.163419,0 -0.24254,-0.07476 -0.24254,-0.22705 l 0,-1.556123 c 0,-0.154367 0.07986,-0.229819 0.24254,-0.229819 l 5.319574,0 c 0.166376,0 0.245496,0.07476 0.245496,0.229819 l 0,1.330457 c 0,0.703994 0,1.357455 -0.07912,1.961768 -0.07468,0.605698 -0.176728,1.12902 -0.303912,1.511128 -0.406697,1.196166 -1.050014,2.047605 -2.038653,2.680991 -0.990858,0.639616 -2.267882,0.982961 -3.652864,0.982961 -1.426392,0 -2.625773,-0.306656 -3.6048,-0.916507 -0.981245,-0.617466 -1.682979,-1.522897 -2.110379,-2.7336 -0.08134,-0.228434 -0.144932,-0.464484 -0.193735,-0.711608 z"
     id="path3373"
     inkscape:connector-curvature="0" />
</svg>
