<!-- Generated by IcoMoon.io -->
<svg version="1.1" xmlns="http://www.w3.org/2000/svg" width="878" height="1024" viewBox="0 0 878 1024">
<title></title>
<g id="icomoon-ignore">
</g>
<path d="M15.357 8.214c-0.473-0.529-1.021-0.79-1.641-0.79-0.702 0-1.239 0.253-1.615 0.756s-0.563 1.11-0.563 1.825c0 0.608 0.102 1.228 0.309 1.861 0.204 0.632 0.54 1.196 1.010 1.692 0.469 0.499 1.012 0.747 1.632 0.747 0.691 0 1.228-0.232 1.615-0.694 0.384-0.461 0.578-1.044 0.578-1.746 0-0.599-0.102-1.224-0.307-1.877-0.204-0.655-0.544-1.247-1.018-1.772zM28.399 1.67c-1.102-1.104-2.427-1.654-3.98-1.654h-18.776c-1.553 0-2.878 0.55-3.98 1.654-1.104 1.1-1.654 2.427-1.654 3.98v18.776c0 1.553 0.55 2.88 1.654 3.982 1.104 1.098 2.431 1.65 3.98 1.65h18.776c1.553 0 2.88-0.553 3.98-1.654 1.104-1.104 1.654-2.427 1.654-3.98v-18.776c0-1.553-0.552-2.88-1.654-3.98zM22.22 7.804v6.711c0 0.311-0.255 0.565-0.565 0.565h-0.208c-0.311 0-0.565-0.255-0.565-0.565v-6.711c0-0.275-0.040-0.506 0.345-0.555v-0.894l-2.968 2.435c0.035 0.063 0.067 0.104 0.099 0.157 0.26 0.461 0.394 1.036 0.394 1.739 0 0.538-0.089 1.021-0.272 1.448s-0.401 0.775-0.659 1.044-0.514 0.516-0.771 0.738c-0.258 0.223-0.478 0.454-0.659 0.694s-0.272 0.488-0.272 0.745 0.117 0.519 0.352 0.783c0.234 0.264 0.52 0.52 0.86 0.773 0.339 0.251 0.679 0.531 1.018 0.833s0.625 0.693 0.858 1.166c0.236 0.475 0.352 0.999 0.352 1.573 0 0.758-0.193 1.444-0.58 2.052s-0.89 1.091-1.51 1.446c-0.621 0.358-1.284 0.627-1.992 0.809-0.709 0.179-1.414 0.272-2.116 0.272-0.444 0-0.892-0.035-1.341-0.104-0.452-0.070-0.905-0.195-1.36-0.369-0.458-0.176-0.862-0.392-1.211-0.651-0.352-0.257-0.634-0.587-0.852-0.991s-0.324-0.856-0.324-1.36c0-0.597 0.166-1.151 0.501-1.667 0.334-0.512 0.775-0.941 1.326-1.281 0.959-0.597 2.463-0.965 4.508-1.104-0.469-0.585-0.704-1.136-0.704-1.65 0-0.294 0.076-0.608 0.228-0.946-0.245 0.035-0.497 0.054-0.754 0.054-1.1 0-2.028-0.358-2.782-1.078s-1.13-1.618-1.13-2.705c0-0.114 0.003-0.213 0.012-0.324h-4.469l6.737-5.856h11.156l-1.031 0.805v1.421c0.382 0.050 0.343 0.279 0.343 0.555zM15.419 18.23c-0.129-0.023-0.309-0.037-0.542-0.037-0.503 0-0.999 0.044-1.483 0.132-0.486 0.086-0.965 0.232-1.438 0.439-0.475 0.204-0.858 0.506-1.149 0.903-0.294 0.397-0.439 0.865-0.439 1.405 0 0.514 0.129 0.971 0.386 1.371 0.257 0.396 0.597 0.707 1.018 0.929s0.864 0.39 1.326 0.501c0.463 0.11 0.933 0.166 1.412 0.166 0.948 0 1.765-0.213 2.448-0.64s1.025-1.085 1.025-1.975c0-0.187-0.025-0.371-0.078-0.552s-0.106-0.337-0.159-0.467c-0.052-0.127-0.151-0.279-0.298-0.456s-0.258-0.307-0.334-0.394c-0.076-0.089-0.221-0.217-0.431-0.386s-0.343-0.275-0.403-0.315-0.211-0.153-0.458-0.334c-0.245-0.181-0.381-0.279-0.403-0.29z"></path>
</svg>
