<!-- Generated by IcoMoon.io -->
<svg version="1.1" xmlns="http://www.w3.org/2000/svg" width="1024" height="1024" viewBox="0 0 1024 1024">
<title></title>
<g id="icomoon-ignore">
</g>
<path d="M25.491 19.373v-2.146l1.558-1.216h-16.858l-10.18 8.848h6.751c-0.012 0.168-0.018 0.319-0.018 0.491 0 1.643 0.569 3.002 1.708 4.088s2.542 1.628 4.203 1.628c0.389 0 0.77-0.029 1.138-0.080-0.23 0.512-0.346 0.987-0.346 1.43 0 0.779 0.355 1.611 1.063 2.494-3.092 0.211-5.364 0.768-6.813 1.668-0.83 0.512-1.498 1.159-2.001 1.934-0.505 0.781-0.756 1.617-0.756 2.519 0 0.76 0.162 1.445 0.491 2.054s0.756 1.11 1.286 1.496c0.529 0.391 1.14 0.718 1.831 0.983 0.688 0.264 1.373 0.452 2.054 0.558s1.356 0.158 2.026 0.158c1.063 0 2.124-0.137 3.197-0.41 1.069-0.275 2.071-0.682 3.009-1.222 0.936-0.537 1.696-1.269 2.279-2.184 0.582-0.921 0.876-1.956 0.876-3.1 0-0.868-0.177-1.659-0.533-2.375-0.353-0.715-0.784-1.305-1.297-1.761-0.512-0.459-1.025-0.879-1.539-1.259-0.512-0.381-0.945-0.77-1.299-1.169s-0.531-0.792-0.531-1.182 0.137-0.762 0.412-1.125c0.272-0.364 0.605-0.713 0.995-1.049s0.779-0.707 1.167-1.114c0.389-0.406 0.72-0.932 0.995-1.577s0.41-1.375 0.41-2.188c0-1.061-0.202-1.929-0.595-2.625-0.046-0.080-0.096-0.143-0.149-0.238l4.485-3.679v1.35c-0.584 0.073-0.522 0.421-0.522 0.84v10.141c0 0.47 0.385 0.855 0.855 0.855h0.315c0.47 0 0.855-0.385 0.855-0.855v-10.141c0-0.416 0.062-0.764-0.518-0.838zM17.031 36.908c0.090 0.060 0.292 0.219 0.609 0.476 0.319 0.257 0.537 0.45 0.652 0.584 0.113 0.132 0.283 0.328 0.503 0.595 0.222 0.266 0.372 0.497 0.452 0.688 0.079 0.196 0.158 0.431 0.239 0.705 0.079 0.272 0.116 0.55 0.116 0.833 0 1.345-0.518 2.339-1.549 2.985-1.034 0.645-2.267 0.968-3.7 0.968-0.724 0-1.435-0.086-2.133-0.253s-1.365-0.421-2.001-0.758-1.15-0.806-1.537-1.403c-0.389-0.603-0.584-1.293-0.584-2.069 0-0.813 0.221-1.52 0.664-2.12s1.019-1.055 1.736-1.365c0.715-0.311 1.439-0.531 2.173-0.662 0.734-0.133 1.483-0.202 2.241-0.202 0.353 0 0.626 0.020 0.821 0.055 0.035 0.018 0.239 0.164 0.611 0.438 0.37 0.274 0.601 0.442 0.69 0.503zM16.766 28.981c-0.584 0.7-1.398 1.048-2.439 1.048-0.936 0-1.757-0.376-2.464-1.129-0.709-0.751-1.216-1.602-1.524-2.557-0.311-0.955-0.467-1.891-0.467-2.81 0-1.080 0.283-1.999 0.851-2.757 0.567-0.761 1.38-1.142 2.438-1.142 0.936 0 1.764 0.397 2.477 1.195 0.717 0.796 1.231 1.689 1.539 2.678 0.31 0.989 0.463 1.933 0.463 2.837 0 1.061-0.292 1.94-0.874 2.636z"></path>
</svg>
