<?xml version="1.0" encoding="UTF-8" standalone="no"?>
<!-- Generated by IcoMoon.io -->

<svg
   xmlns:dc="http://purl.org/dc/elements/1.1/"
   xmlns:cc="http://creativecommons.org/ns#"
   xmlns:rdf="http://www.w3.org/1999/02/22-rdf-syntax-ns#"
   xmlns:svg="http://www.w3.org/2000/svg"
   xmlns="http://www.w3.org/2000/svg"
   xmlns:sodipodi="http://sodipodi.sourceforge.net/DTD/sodipodi-0.dtd"
   xmlns:inkscape="http://www.inkscape.org/namespaces/inkscape"
   version="1.1"
   width="1024"
   height="1024"
   viewBox="0 0 1024 1024"
   id="svg3368"
   inkscape:version="0.91 r13725"
   sodipodi:docname="researchgate1.svg">
  <metadata
     id="metadata3379">
    <rdf:RDF>
      <cc:Work
         rdf:about="">
        <dc:format>image/svg+xml</dc:format>
        <dc:type
           rdf:resource="http://purl.org/dc/dcmitype/StillImage" />
      </cc:Work>
    </rdf:RDF>
  </metadata>
  <defs
     id="defs3377" />
  <sodipodi:namedview
     pagecolor="#ffffff"
     bordercolor="#666666"
     borderopacity="1"
     objecttolerance="10"
     gridtolerance="10"
     guidetolerance="10"
     inkscape:pageopacity="0"
     inkscape:pageshadow="2"
     inkscape:window-width="1366"
     inkscape:window-height="719"
     id="namedview3375"
     showgrid="false"
     inkscape:zoom="1.4998398"
     inkscape:cx="255.67087"
     inkscape:cy="988.99058"
     inkscape:window-x="0"
     inkscape:window-y="25"
     inkscape:window-maximized="1"
     inkscape:current-layer="svg3368" />
  <title
     id="title3370" />
  <g
     id="icomoon-ignore" />
  <path
     d="m 24.587786,37.077319 c -2.190978,-2.174511 -5.122143,-5.666276 -7.560097,-9.613986 4.029242,-0.859284 7.010689,-4.30923 7.010689,-7.755805 0,-5.080155 -4.327239,-7.438799 -9.996572,-7.438799 -2.931904,0 -5.2715118,0.134895 -7.4536173,0.134895 -1.9928075,0 -3.9833965,0 -5.2249266,-0.04452 l 0,1.317927 1.887806,0.315655 c 1.2992069,0.227299 2.038653,0.768903 2.038653,3.583493 l 0,17.868902 c 0,2.813916 -0.7394461,3.357544 -2.038653,3.582145 l -1.887806,0.322401 0,1.311856 c 1.3420947,-0.04452 3.6787446,-0.133547 6.0168733,-0.133547 2.2375642,0 5.1221426,0.08971 6.3651516,0.133547 l 0,-1.311856 -2.588061,-0.322399 C 9.8151321,38.849843 9.116355,38.259002 9.116355,35.445086 l 0,-7.574369 c 1.193466,0.09105 2.237564,0.09105 3.832549,0.09105 3.033209,4.943912 5.917049,8.66365 7.55566,10.385588 1.49664,1.63493 3.781529,2.677671 6.66389,2.677671 0.844448,0 1.739178,-0.134895 2.284889,-0.364217 l 0,-1.177636 c -1.790199,0 -3.579658,-1.136492 -4.867776,-2.406532 z M 12.698971,25.92013 c -1.691852,0 -2.434256,-0.04115 -3.5811371,-0.139616 l 0,-11.379765 c 1.1483601,-0.09105 2.6856681,-0.09105 4.0292411,-0.09105 4.179352,0 6.66315,1.998475 6.66315,5.623784 0,3.583494 -2.684189,5.986652 -7.110514,5.986652 z M 27.879062,14.470894 c -0.05028,-0.23809 -0.09465,-0.515975 -0.134579,-0.837025 -0.04066,-0.323748 -0.06803,-0.702804 -0.08504,-1.15133 -0.01627,-0.445155 -0.02292,-0.988784 -0.02292,-1.611325 0,-0.625239 0.0074,-1.1621228 0.02292,-1.6086268 0.01627,-0.4485263 0.04363,-0.8323034 0.08504,-1.1526795 0.03993,-0.319028 0.08504,-0.5982606 0.134579,-0.8370251 0.0488,-0.2407888 0.111657,-0.4674123 0.193735,-0.6920131 0.428138,-1.1803342 1.128394,-2.0672703 2.110378,-2.6621584 0.979027,-0.5955626 2.179148,-0.8936811 3.6048,-0.8936811 0.733531,0 1.398294,0.077568 1.986154,0.2360664 0.582683,0.1564793 1.104732,0.3723117 1.566886,0.6481717 0.455498,0.2738375 0.847405,0.5955626 1.172761,0.9604547 0.33275,0.3662412 0.60117,0.7574369 0.810434,1.1756126 0.08134,0.1335463 0.05767,0.240788 -0.07247,0.3143056 l -1.809423,0.6791978 c -0.153065,0.074196 -0.261024,0.036424 -0.3468,-0.1112887 C 36.689561,6.2416074 36.3435,5.790383 35.772648,5.4619129 35.196619,5.1361408 34.663479,4.980337 33.786495,4.980337 c -0.953886,0 -1.381286,0.1726664 -1.978758,0.5638621 -0.593035,0.3831027 -1.02857,0.865353 -1.284417,1.5978343 -0.05177,0.1321973 -0.09834,0.2960951 -0.153066,0.4889955 -0.0451,0.1955983 -0.08134,0.4363863 -0.105002,0.7169687 -0.02366,0.2805825 -0.0451,0.6292866 -0.06433,1.0400432 -0.01331,0.4107557 -0.01996,0.9091942 -0.01996,1.4858712 0,0.580049 0.0074,1.078488 0.01996,1.488569 0.01996,0.408059 0.04066,0.757437 0.06433,1.038694 0.02292,0.284629 0.05915,0.522044 0.105002,0.72034 0.05546,0.189529 0.102043,0.353426 0.153066,0.487647 0.255847,0.729784 0.623352,1.130422 1.163887,1.450799 0.533141,0.325097 1.145402,0.55914 2.100026,0.55914 0.847407,0 1.623085,-0.220554 2.129606,-0.556442 0.500606,-0.335889 0.917654,-0.779695 1.103994,-1.386724 0.08134,-0.254952 0.187079,-0.573305 0.258806,-0.961803 0.06433,-0.389173 0.06433,-0.801278 0.06433,-1.369187 0,-0.08971 -0.05546,-0.134895 -0.14641,-0.134895 l -2.899367,0 c -0.16342,0 -0.242541,-0.07284 -0.242541,-0.221229 l 0,-1.516222 c 0,-0.150409 0.07986,-0.223926 0.242541,-0.223926 l 5.319574,0 c 0.166376,0 0.245496,0.07284 0.245496,0.223926 l 0,1.296343 c 0,0.685943 0,1.322648 -0.07912,1.911466 -0.07468,0.590167 -0.176728,1.100071 -0.303912,1.472381 -0.406697,1.165496 -1.050014,1.995103 -2.038653,2.612248 -0.990858,0.623216 -2.267882,0.957757 -3.652865,0.957757 -1.426392,0 -2.625773,-0.298793 -3.6048,-0.893007 -0.981245,-0.601633 -1.682979,-1.483848 -2.110379,-2.663508 -0.08134,-0.222576 -0.144932,-0.452574 -0.193735,-0.693361 z"
     id="path3373"
     inkscape:connector-curvature="0" />
</svg>
