<!-- Generated by IcoMoon.io -->
<svg version="1.1" xmlns="http://www.w3.org/2000/svg" width="1024" height="1024" viewBox="0 0 1024 1024">
<title></title>
<g id="icomoon-ignore">
</g>
<path d="M34.717 55.792c-3.273-3.561-7.651-9.281-11.294-15.745 6.018-1.408 10.473-7.057 10.473-12.702 0-8.32-6.463-12.183-14.935-12.183-4.379 0-7.874 0.221-11.135 0.221-2.977 0-5.951 0-7.804-0.073v2.157l2.82 0.517c1.941 0.373 3.044 1.26 3.044 5.868v29.265c0 4.609-1.104 5.498-3.044 5.866l-2.82 0.528v2.149c2.005-0.073 5.496-0.219 8.989-0.219 3.343 0 7.651 0.147 9.509 0.219v-2.149l-3.865-0.528c-2.005-0.291-3.049-1.258-3.049-5.866v-12.404c1.783 0.149 3.343 0.149 5.724 0.149 4.531 8.096 8.839 14.189 11.288 17.010 2.235 2.678 5.648 4.385 9.956 4.385 1.262 0 2.598-0.221 3.413-0.596v-1.929c-2.674 0-5.348-1.861-7.271-3.941zM16.958 37.519c-2.528 0-3.636-0.067-5.35-0.229v-18.638c1.715-0.149 4.011-0.149 6.018-0.149 6.243 0 9.954 3.273 9.954 9.211 0 5.868-4.009 9.805-10.623 9.805zM39.634 18.769c-0.075-0.39-0.141-0.845-0.201-1.371-0.061-0.53-0.102-1.151-0.127-1.886-0.024-0.729-0.034-1.62-0.034-2.639 0-1.024 0.011-1.904 0.034-2.635 0.024-0.735 0.065-1.363 0.127-1.888 0.059-0.522 0.127-0.98 0.201-1.371 0.073-0.394 0.166-0.766 0.289-1.132 0.639-1.933 1.686-3.385 3.151-4.36 1.462-0.976 3.254-1.464 5.385-1.464 1.095 0 2.087 0.127 2.966 0.386 0.871 0.256 1.651 0.61 2.341 1.061 0.68 0.449 1.266 0.976 1.752 1.573 0.497 0.6 0.898 1.239 1.211 1.925 0.122 0.219 0.087 0.394-0.107 0.515l-2.703 1.112c-0.229 0.122-0.39 0.059-0.519-0.182-0.606-1.124-1.124-1.863-1.976-2.4-0.861-0.534-1.657-0.789-2.966-0.789-1.425 0-2.062 0.283-2.955 0.923-0.886 0.628-1.535 1.416-1.918 2.617-0.077 0.217-0.147 0.485-0.229 0.801-0.067 0.32-0.122 0.714-0.157 1.174s-0.067 1.030-0.096 1.702c-0.020 0.672-0.030 1.488-0.030 2.433 0 0.951 0.011 1.766 0.030 2.438 0.030 0.668 0.061 1.239 0.096 1.7 0.034 0.466 0.089 0.855 0.157 1.18 0.083 0.31 0.153 0.579 0.229 0.799 0.382 1.196 0.931 1.851 1.737 2.376 0.797 0.532 1.711 0.916 3.136 0.916 1.266 0 2.425-0.361 3.18-0.912 0.748-0.55 1.371-1.276 1.649-2.27 0.122-0.417 0.279-0.939 0.386-1.575 0.096-0.637 0.096-1.311 0.096-2.241 0-0.147-0.083-0.221-0.219-0.221h-4.33c-0.244 0-0.363-0.12-0.363-0.363v-2.483c0-0.246 0.12-0.367 0.363-0.367h7.946c0.248 0 0.367 0.12 0.367 0.367v2.122c0 1.124 0 2.166-0.118 3.131-0.112 0.966-0.264 1.801-0.454 2.41-0.607 1.908-1.569 3.266-3.044 4.278-1.48 1.021-3.387 1.569-5.457 1.569-2.13 0-3.922-0.489-5.385-1.462-1.466-0.986-2.513-2.431-3.151-4.362-0.122-0.365-0.217-0.741-0.289-1.135z"></path>
</svg>
