<?xml version="1.0" encoding="UTF-8" standalone="no"?>
<!-- Generated by IcoMoon.io -->

<svg
   xmlns:dc="http://purl.org/dc/elements/1.1/"
   xmlns:cc="http://creativecommons.org/ns#"
   xmlns:rdf="http://www.w3.org/1999/02/22-rdf-syntax-ns#"
   xmlns:svg="http://www.w3.org/2000/svg"
   xmlns="http://www.w3.org/2000/svg"
   xmlns:sodipodi="http://sodipodi.sourceforge.net/DTD/sodipodi-0.dtd"
   xmlns:inkscape="http://www.inkscape.org/namespaces/inkscape"
   version="1.1"
   width="1024"
   height="1024"
   viewBox="0 0 1024 1024"
   id="svg3368"
   inkscape:version="0.91 r13725"
   sodipodi:docname="researchgate1.svg">
  <metadata
     id="metadata3379">
    <rdf:RDF>
      <cc:Work
         rdf:about="">
        <dc:format>image/svg+xml</dc:format>
        <dc:type
           rdf:resource="http://purl.org/dc/dcmitype/StillImage" />
      </cc:Work>
    </rdf:RDF>
  </metadata>
  <defs
     id="defs3377" />
  <sodipodi:namedview
     pagecolor="#ffffff"
     bordercolor="#666666"
     borderopacity="1"
     objecttolerance="10"
     gridtolerance="10"
     guidetolerance="10"
     inkscape:pageopacity="0"
     inkscape:pageshadow="2"
     inkscape:window-width="1366"
     inkscape:window-height="719"
     id="namedview3375"
     showgrid="false"
     inkscape:zoom="1.4998398"
     inkscape:cx="255.67087"
     inkscape:cy="988.99058"
     inkscape:window-x="0"
     inkscape:window-y="25"
     inkscape:window-maximized="1"
     inkscape:current-layer="svg3368" />
  <title
     id="title3370" />
  <g
     id="icomoon-ignore" />
  <path
     d="m 24.889401,36.973432 c -2.219433,-2.231735 -5.188665,-5.815388 -7.65828,-9.866985 4.081569,-0.881896 7.101736,-4.42263 7.101736,-7.959904 0,-5.213843 -4.383436,-7.634557 -10.126396,-7.634557 -2.969981,0 -5.3399726,0.138445 -7.5504169,0.138445 -2.0186877,0 -4.0351283,0 -5.292782,-0.04569 l 0,1.352609 1.9123227,0.323962 c 1.3160796,0.23328 2.0651288,0.789137 2.0651288,3.677795 l 0,18.339135 c 0,2.887966 -0.7490492,3.4459 -2.0651288,3.676411 l -1.9123227,0.330886 0,1.346378 c 1.3595244,-0.04569 3.72652,-0.137061 6.0950137,-0.137061 2.2666231,0 5.1886632,0.09207 6.4478152,0.137061 l 0,-1.346378 -2.621672,-0.330884 C 9.9248955,38.792601 9.2170435,38.186212 9.2170435,35.298246 l 0,-7.773694 c 1.2089655,0.09345 2.2666225,0.09345 3.8823225,0.09345 3.0726,5.074015 5.993892,8.89164 7.653784,10.658892 1.516077,1.677955 3.830639,2.748136 6.750433,2.748136 0.855414,0 1.761764,-0.138445 2.314562,-0.373802 l 0,-1.208626 c -1.813448,0 -3.626147,-1.1664 -4.930992,-2.469862 z M 12.846187,25.522634 c -1.713824,0 -2.46587,-0.04223 -3.6276454,-0.14329 l 0,-11.679232 c 1.1632734,-0.09345 2.7205464,-0.09345 4.0815684,-0.09345 4.233628,0 6.749683,2.051066 6.749683,5.771778 0,3.677796 -2.719048,6.144195 -7.202857,6.144195 z M 28.223419,13.772103 c -0.05093,-0.244355 -0.09588,-0.529553 -0.136327,-0.859052 -0.04119,-0.332268 -0.06891,-0.721299 -0.08614,-1.181628 -0.01648,-0.45687 -0.02322,-1.014804 -0.02322,-1.653728 0,-0.641693 0.0075,-1.192705 0.02322,-1.650959 0.01648,-0.4603296 0.0442,-0.8542061 0.08614,-1.1830131 0.04045,-0.3274235 0.08614,-0.6140043 0.136327,-0.859052 0.04943,-0.2471254 0.113107,-0.4797126 0.196251,-0.710224 0.433699,-1.2113955 1.143049,-2.1216719 2.137786,-2.7322149 0.991741,-0.6112353 2.207448,-0.917199 3.651615,-0.917199 0.743057,0 1.416453,0.079609 2.011947,0.2422787 0.590251,0.1605971 1.119079,0.3821093 1.587235,0.6652288 0.461414,0.2810437 0.858411,0.6112352 1.187992,0.9857297 0.337072,0.3758791 0.608977,0.7773694 0.820959,1.2065497 0.0824,0.1370606 0.05842,0.2471245 -0.07341,0.3225768 L 37.910871,6.144468 C 37.755818,6.2206155 37.646457,6.1818495 37.559567,6.0302507 37.148339,5.3262569 36.797784,4.8631582 36.219518,4.5260442 35.636008,4.1916992 35.095944,4.0317953 34.207572,4.0317953 c -0.966274,0 -1.399225,0.1772102 -2.004456,0.5787005 -0.600737,0.3931843 -1.041928,0.8881254 -1.301098,1.6398825 -0.05244,0.1356761 -0.09962,0.303887 -0.155054,0.5018637 -0.04569,0.2007456 -0.0824,0.4478701 -0.106365,0.7358363 -0.02397,0.2879662 -0.04569,0.6458467 -0.06517,1.0674127 -0.01348,0.421565 -0.02022,0.93312 -0.02022,1.524973 0,0.595313 0.0075,1.106869 0.02022,1.527742 0.02022,0.418797 0.04119,0.777369 0.06517,1.066028 0.02322,0.292119 0.05992,0.535782 0.106365,0.739296 0.05618,0.194516 0.103369,0.362727 0.155054,0.50048 0.25917,0.748988 0.631448,1.16017 1.179003,1.488977 0.540064,0.333653 1.160277,0.573855 2.127299,0.573855 0.858411,0 1.644163,-0.226358 2.157262,-0.571086 0.507107,-0.344728 0.929571,-0.800213 1.118331,-1.423216 0.0824,-0.261661 0.189509,-0.588392 0.262167,-0.987114 0.06517,-0.399414 0.06517,-0.822364 0.06517,-1.405218 0,-0.09207 -0.05618,-0.138445 -0.148312,-0.138445 l -2.937021,0 c -0.165541,0 -0.245689,-0.07476 -0.245689,-0.22705 l 0,-1.556123 c 0,-0.154367 0.0809,-0.229819 0.245689,-0.229819 l 5.38866,0 c 0.168536,0 0.248684,0.07476 0.248684,0.229819 l 0,1.330457 c 0,0.703994 0,1.357455 -0.08015,1.961768 -0.07565,0.605698 -0.179023,1.12902 -0.307859,1.511128 -0.411978,1.196166 -1.06365,2.047605 -2.065129,2.680991 -1.003726,0.639616 -2.297334,0.982961 -3.700303,0.982961 -1.444917,0 -2.659874,-0.306656 -3.651616,-0.916507 -0.993988,-0.617466 -1.704836,-1.522897 -2.137786,-2.7336 -0.0824,-0.228434 -0.146814,-0.464484 -0.196251,-0.711608 z"
     id="path3373"
     inkscape:connector-curvature="0" />
</svg>
