<!-- Generated by IcoMoon.io -->
<svg version="1.1" xmlns="http://www.w3.org/2000/svg" width="1024" height="1024" viewBox="0 0 1024 1024">
<title></title>
<g id="icomoon-ignore">
</g>
<path d="M52.407 6.921v-4.414l3.204-2.5h-34.668l-20.935 18.197h13.883c-0.025 0.344-0.037 0.656-0.037 1.010 0 3.379 1.169 6.173 3.512 8.406 2.344 2.235 5.227 3.348 8.643 3.348 0.8 0 1.582-0.060 2.34-0.165-0.473 1.052-0.71 2.029-0.71 2.94 0 1.601 0.73 3.313 2.185 5.13-6.36 0.434-11.031 1.578-14.012 3.43-1.706 1.052-3.080 2.383-4.115 3.976-1.037 1.605-1.554 3.325-1.554 5.181 0 1.562 0.333 2.971 1.010 4.224s1.554 2.282 2.644 3.076c1.087 0.804 2.344 1.477 3.765 2.021 1.414 0.543 2.823 0.928 4.224 1.146 1.399 0.216 2.788 0.325 4.166 0.325 2.185 0 4.368-0.282 6.574-0.842 2.198-0.566 4.259-1.402 6.188-2.512 1.924-1.103 3.488-2.609 4.687-4.492 1.196-1.893 1.8-4.022 1.8-6.375 0-1.784-0.364-3.411-1.095-4.885-0.726-1.469-1.612-2.683-2.667-3.621-1.052-0.944-2.107-1.807-3.165-2.589-1.052-0.784-1.943-1.582-2.671-2.403-0.726-0.819-1.091-1.628-1.091-2.43 0-0.799 0.282-1.566 0.846-2.313 0.558-0.749 1.243-1.465 2.045-2.157 0.8-0.691 1.601-1.453 2.399-2.29 0.799-0.835 1.48-1.916 2.045-3.243 0.566-1.325 0.842-2.827 0.842-4.5 0-2.181-0.414-3.967-1.224-5.399-0.095-0.165-0.196-0.294-0.305-0.488l9.223-7.566v2.776c-1.2 0.15-1.072 0.866-1.072 1.726v20.854c0 0.967 0.792 1.757 1.757 1.757h0.648c0.967 0 1.757-0.792 1.757-1.757v-20.854c0-0.854 0.126-1.57-1.064-1.722zM35.007 42.98c0.185 0.123 0.601 0.449 1.251 0.979 0.656 0.527 1.103 0.924 1.34 1.2 0.232 0.27 0.582 0.675 1.033 1.224 0.457 0.547 0.765 1.021 0.928 1.414 0.161 0.403 0.326 0.885 0.492 1.449 0.161 0.558 0.239 1.13 0.239 1.713 0 2.765-1.064 4.811-3.185 6.138-2.126 1.325-4.663 1.99-7.609 1.99-1.488 0-2.951-0.177-4.387-0.519-1.434-0.344-2.807-0.866-4.115-1.558s-2.364-1.656-3.161-2.885c-0.8-1.239-1.2-2.659-1.2-4.255 0-1.671 0.453-3.126 1.364-4.36 0.908-1.235 2.097-2.169 3.57-2.807 1.469-0.64 2.959-1.091 4.469-1.36 1.508-0.274 3.049-0.414 4.609-0.414 0.726 0 1.286 0.041 1.687 0.113 0.072 0.037 0.492 0.337 1.255 0.901 0.761 0.562 1.235 0.909 1.418 1.033zM34.462 26.679c-1.2 1.438-2.874 2.154-5.017 2.154-1.924 0-3.613-0.772-5.068-2.321-1.457-1.543-2.5-3.294-3.134-5.259-0.64-1.963-0.959-3.889-0.959-5.78 0-2.22 0.582-4.111 1.749-5.671 1.165-1.565 2.838-2.348 5.014-2.348 1.924 0 3.628 0.815 5.095 2.457 1.473 1.636 2.531 3.473 3.165 5.508 0.636 2.033 0.951 3.975 0.951 5.834 0 2.181-0.601 3.99-1.796 5.422z"></path>
</svg>
