<!-- Generated by IcoMoon.io -->
<svg version="1.1" xmlns="http://www.w3.org/2000/svg" width="878" height="1024" viewBox="0 0 878 1024">
<title></title>
<g id="icomoon-ignore">
</g>
<path d="M43.722 2.559c-1.698-1.698-3.737-2.545-6.127-2.545h-28.901c-2.39 0-4.429 0.846-6.127 2.545-1.698 1.694-2.545 3.737-2.545 6.127v28.901c0 2.39 0.846 4.433 2.545 6.13 1.698 1.691 3.741 2.54 6.127 2.54h28.901c2.39 0 4.429-0.851 6.127-2.545 1.698-1.698 2.545-3.737 2.545-6.127v-28.901c0-2.39-0.846-4.433-2.545-6.127zM30.512 38.219c-0.456 0.207-1.201 0.332-1.905 0.332-2.402 0-4.305-0.952-5.548-2.445-1.367-1.572-3.768-4.965-6.294-9.479-1.325 0-2.195 0-3.188-0.083v6.915c0 2.568 0.579 3.105 1.698 3.27l2.153 0.29v1.201c-1.036-0.041-3.436-0.122-5.301-0.122-1.946 0-3.891 0.081-5.009 0.122v-1.201l1.574-0.29c1.079-0.207 1.698-0.703 1.698-3.27v-16.313c0-2.566-0.619-3.062-1.698-3.27l-1.574-0.29v-1.201c1.036 0.041 2.691 0.041 4.348 0.041 1.819 0 3.767-0.124 6.21-0.124 4.721 0 8.322 2.153 8.322 6.789 0 3.146-2.484 6.294-5.837 7.081 2.029 3.601 4.471 6.791 6.292 8.777 1.076 1.157 2.566 2.194 4.056 2.194v1.076zM39.171 11.845c0 0.627-0.002 1.208-0.064 1.744-0.060 0.537-0.145 1.005-0.254 1.345-0.34 1.062-0.875 1.818-1.699 2.383-0.822 0.566-1.886 0.874-3.040 0.874-1.183 0-2.185-0.273-3-0.815-0.817-0.546-1.4-1.355-1.756-2.429-0.067-0.203-0.122-0.416-0.162-0.634-0.041-0.216-0.079-0.471-0.113-0.764-0.034-0.291-0.059-0.641-0.072-1.050-0.014-0.407-0.018-0.9-0.018-1.47s0.005-1.059 0.018-1.468c0.014-0.408 0.038-0.758 0.072-1.052 0.034-0.291 0.072-0.547 0.113-0.764 0.040-0.219 0.095-0.429 0.162-0.632 0.356-1.075 0.939-1.884 1.756-2.428 0.815-0.544 1.816-0.817 3-0.817 0.612 0 1.163 0.072 1.653 0.213 0.489 0.145 0.925 0.34 1.306 0.593s0.708 0.544 0.979 0.878c0.273 0.333 0.497 0.689 0.674 1.069 0.067 0.124 0.047 0.22-0.063 0.288l-1.507 0.624c-0.122 0.067-0.216 0.033-0.286-0.102-0.339-0.627-0.627-1.040-1.102-1.338-0.476-0.301-0.919-0.439-1.653-0.439-0.79 0-1.149 0.154-1.644 0.51-0.497 0.353-0.855 0.793-1.071 1.458-0.041 0.122-0.083 0.271-0.124 0.45-0.040 0.176-0.070 0.395-0.090 0.651-0.021 0.258-0.038 0.575-0.053 0.949-0.011 0.375-0.018 0.828-0.018 1.357 0 0.531 0.008 0.984 0.018 1.36 0.015 0.372 0.033 0.689 0.053 0.946 0.021 0.26 0.051 0.478 0.090 0.656 0.041 0.176 0.083 0.323 0.124 0.447 0.216 0.669 0.521 1.030 0.968 1.324 0.445 0.296 0.958 0.512 1.748 0.512 0.706 0 1.354-0.202 1.773-0.508s0.764-0.709 0.922-1.267c0.067-0.232 0.157-0.523 0.213-0.877 0.053-0.353 0.053-0.732 0.053-1.248 0-0.081-0.041-0.124-0.122-0.124h-2.41c-0.135 0-0.203-0.066-0.203-0.203v-1.381c0-0.138 0.067-0.203 0.203-0.203h4.427c0.138 0 0.203 0.066 0.203 0.203v1.182zM22.479 19.299c0-3.313-2.071-5.135-5.548-5.135-1.118 0-2.402 0-3.353 0.083v10.39c0.952 0.086 1.574 0.124 2.981 0.124 3.685 0.001 5.919-2.192 5.919-5.462z"></path>
</svg>
