<?xml version="1.0" encoding="UTF-8" standalone="no"?>
<!-- Generated by IcoMoon.io -->

<svg
   xmlns:dc="http://purl.org/dc/elements/1.1/"
   xmlns:cc="http://creativecommons.org/ns#"
   xmlns:rdf="http://www.w3.org/1999/02/22-rdf-syntax-ns#"
   xmlns:svg="http://www.w3.org/2000/svg"
   xmlns="http://www.w3.org/2000/svg"
   xmlns:sodipodi="http://sodipodi.sourceforge.net/DTD/sodipodi-0.dtd"
   xmlns:inkscape="http://www.inkscape.org/namespaces/inkscape"
   version="1.1"
   width="1024"
   height="1024"
   viewBox="0 0 1024 1024"
   id="svg3368"
   inkscape:version="0.91 r13725"
   sodipodi:docname="researchgate1.svg">
  <metadata
     id="metadata3379">
    <rdf:RDF>
      <cc:Work
         rdf:about="">
        <dc:format>image/svg+xml</dc:format>
        <dc:type
           rdf:resource="http://purl.org/dc/dcmitype/StillImage" />
      </cc:Work>
    </rdf:RDF>
  </metadata>
  <defs
     id="defs3377" />
  <sodipodi:namedview
     pagecolor="#ffffff"
     bordercolor="#666666"
     borderopacity="1"
     objecttolerance="10"
     gridtolerance="10"
     guidetolerance="10"
     inkscape:pageopacity="0"
     inkscape:pageshadow="2"
     inkscape:window-width="1366"
     inkscape:window-height="719"
     id="namedview3375"
     showgrid="false"
     inkscape:zoom="1.4998398"
     inkscape:cx="255.67087"
     inkscape:cy="988.99058"
     inkscape:window-x="0"
     inkscape:window-y="25"
     inkscape:window-maximized="1"
     inkscape:current-layer="svg3368" />
  <title
     id="title3370" />
  <g
     id="icomoon-ignore" />
  <path
     d="m 24.587786,35.181206 c -2.190978,-2.117288 -5.122143,-5.517164 -7.560097,-9.360988 4.029242,-0.836671 7.010689,-4.195829 7.010689,-7.551705 0,-4.946468 -4.327239,-7.243042 -9.996572,-7.243042 -2.931904,0 -5.2715118,0.131345 -7.4536173,0.131345 -1.9928075,0 -3.9833965,0 -5.2249266,-0.04335 l 0,1.283245 1.887806,0.307349 c 1.2992069,0.221317 2.038653,0.748668 2.038653,3.489191 l 0,17.398669 c 0,2.739866 -0.7394461,3.269188 -2.038653,3.487878 l -1.887806,0.313917 0,1.277334 c 1.3420947,-0.04335 3.6787446,-0.130033 6.0168733,-0.130033 2.2375642,0 5.1221426,0.08735 6.3651516,0.130033 l 0,-1.277334 L 11.157226,37.0798 C 9.8151321,36.907084 9.116355,36.331792 9.116355,33.591926 l 0,-7.375044 c 1.193466,0.08865 2.237564,0.08865 3.832549,0.08865 3.033209,4.813809 5.917049,8.43566 7.55566,10.112284 1.49664,1.591905 3.781529,2.607206 6.66389,2.607206 0.844448,0 1.739178,-0.131345 2.284889,-0.354632 l 0,-1.146646 c -1.790199,0 -3.579658,-1.106585 -4.867776,-2.343203 z M 12.698971,24.317626 c -1.691852,0 -2.434256,-0.04007 -3.5811371,-0.135942 l 0,-11.080299 c 1.1483601,-0.08865 2.6856681,-0.08865 4.0292411,-0.08865 4.179352,0 6.66315,1.945884 6.66315,5.47579 0,3.489192 -2.684189,5.82911 -7.110514,5.82911 z M 27.879062,13.169684 c -0.05028,-0.231824 -0.09465,-0.502397 -0.134579,-0.814998 -0.04066,-0.315228 -0.06803,-0.684309 -0.08504,-1.121032 -0.01627,-0.43344 -0.02292,-0.962763 -0.02292,-1.568922 0,-0.608785 0.0074,-1.13154 0.02292,-1.566294 0.01627,-0.4367234 0.04363,-0.8104012 0.08504,-1.1223463 0.03993,-0.3106326 0.08504,-0.582517 0.134579,-0.8149983 0.0488,-0.2344522 0.111657,-0.455112 0.193735,-0.6738023 0.428138,-1.1492729 1.128394,-2.0128686 2.110378,-2.5921018 0.979027,-0.57989 2.179148,-0.8701633 3.6048,-0.8701633 0.733531,0 1.398294,0.075527 1.986154,0.2298542 0.582683,0.1523614 1.104732,0.362514 1.566886,0.6311146 0.455498,0.2666312 0.847405,0.5798899 1.172761,0.9351796 0.33275,0.3566034 0.60117,0.7375045 0.810434,1.1446756 0.08134,0.1300319 0.05767,0.2344515 -0.07247,0.3060344 l -1.809423,0.6613243 c -0.153065,0.072243 -0.261024,0.035465 -0.3468,-0.1083601 C 36.689561,5.156957 36.3435,4.7176068 35.772648,4.3977807 35.196619,4.0805815 34.663479,3.9288778 33.786495,3.9288778 c -0.953886,0 -1.381286,0.1681225 -1.978758,0.5490236 -0.593035,0.3730211 -1.02857,0.8425807 -1.284417,1.5557862 -0.05177,0.1287185 -0.09834,0.2883032 -0.153066,0.4761273 -0.0451,0.190451 -0.08134,0.4249025 -0.105002,0.6981012 -0.02366,0.2731987 -0.0451,0.6127264 -0.06433,1.0126739 -0.01331,0.399946 -0.01996,0.885268 -0.01996,1.446769 0,0.564785 0.0074,1.050107 0.01996,1.449397 0.01996,0.39732 0.04066,0.737504 0.06433,1.01136 0.02292,0.277138 0.05915,0.508306 0.105002,0.701383 0.05546,0.184542 0.102043,0.344126 0.153066,0.474815 0.255847,0.710579 0.623352,1.100674 1.163887,1.41262 0.533141,0.316542 1.145402,0.544426 2.100026,0.544426 0.847407,0 1.623085,-0.21475 2.129606,-0.541799 0.500606,-0.32705 0.917654,-0.759177 1.103994,-1.350232 0.08134,-0.248242 0.187079,-0.558218 0.258806,-0.936492 0.06433,-0.378932 0.06433,-0.780192 0.06433,-1.333156 0,-0.08735 -0.05546,-0.131345 -0.14641,-0.131345 l -2.899367,0 c -0.16342,0 -0.242541,-0.07092 -0.242541,-0.215407 l 0,-1.476322 c 0,-0.146451 0.07986,-0.218033 0.242541,-0.218033 l 5.319574,0 c 0.166376,0 0.245496,0.07092 0.245496,0.218033 l 0,1.262229 c 0,0.667892 0,1.287842 -0.07912,1.861164 -0.07468,0.574637 -0.176728,1.071122 -0.303912,1.433635 -0.406697,1.134825 -1.050014,1.9426 -2.038653,2.543505 -0.990858,0.606815 -2.267882,0.932553 -3.652865,0.932553 -1.426392,0 -2.625773,-0.290931 -3.6048,-0.869507 -0.981245,-0.585801 -1.682979,-1.4448 -2.110379,-2.593416 -0.08134,-0.216719 -0.144932,-0.440665 -0.193735,-0.675115 z"
     id="path3373"
     inkscape:connector-curvature="0" />
</svg>
