<!-- Generated by IcoMoon.io -->
<svg version="1.1" xmlns="http://www.w3.org/2000/svg" width="878" height="1024" viewBox="0 0 878 1024">
<title></title>
<g id="icomoon-ignore">
</g>
<path d="M48.039 25.662c-1.478-1.654-3.194-2.471-5.133-2.471-2.195 0-3.875 0.79-5.051 2.365-1.172 1.572-1.76 3.473-1.76 5.709 0 1.903 0.32 3.84 0.966 5.821 0.64 1.977 1.689 3.74 3.159 5.292 1.466 1.56 3.168 2.336 5.104 2.336 2.16 0 3.843-0.725 5.051-2.17 1.202-1.443 1.807-3.264 1.807-5.462 0-1.872-0.32-3.828-0.961-5.873-0.638-2.048-1.701-3.899-3.183-5.544zM88.849 5.186c-3.446-3.452-7.595-5.174-12.455-5.174h-58.753c-4.857 0-9.006 1.72-12.455 5.174-3.452 3.441-5.174 7.595-5.174 12.455v58.753c0 4.857 1.72 9.012 5.174 12.461 3.452 3.435 7.607 5.162 12.455 5.162h58.753c4.857 0 9.011-1.731 12.455-5.174 3.452-3.452 5.174-7.595 5.174-12.455v-58.753c0-4.857-1.725-9.012-5.174-12.455zM69.516 24.379v21c0 0.973-0.796 1.766-1.766 1.766h-0.649c-0.973 0-1.766-0.796-1.766-1.766v-21c0-0.861-0.126-1.584 1.081-1.736v-2.794l-9.288 7.619c0.109 0.197 0.209 0.326 0.308 0.491 0.814 1.443 1.231 3.241 1.231 5.439 0 1.684-0.279 3.194-0.849 4.531-0.567 1.337-1.255 2.424-2.060 3.264-0.802 0.843-1.607 1.613-2.413 2.306-0.808 0.696-1.496 1.419-2.060 2.171-0.567 0.749-0.849 1.525-0.849 2.33s0.367 1.623 1.102 2.448c0.732 0.826 1.625 1.625 2.688 2.418 1.061 0.784 2.124 1.659 3.186 2.606 1.063 0.949 1.954 2.165 2.683 3.646 0.737 1.484 1.102 3.123 1.102 4.921 0 2.371-0.602 4.516-1.813 6.42-1.208 1.901-2.782 3.411-4.722 4.522-1.942 1.119-4.017 1.96-6.232 2.53-2.218 0.561-4.422 0.849-6.62 0.849-1.39 0-2.788-0.109-4.193-0.326-1.413-0.22-2.829-0.608-4.252-1.155-1.431-0.549-2.694-1.225-3.787-2.036-1.102-0.802-1.983-1.836-2.665-3.1s-1.014-2.677-1.014-4.252c0-1.866 0.52-3.599 1.566-5.215 1.043-1.601 2.424-2.941 4.146-4.005 3-1.866 7.707-3.018 14.107-3.452-1.466-1.83-2.201-3.552-2.201-5.162 0-0.919 0.238-1.901 0.714-2.959-0.767 0.109-1.554 0.167-2.358 0.167-3.441 0-6.344-1.119-8.706-3.37-2.359-2.248-3.535-5.062-3.535-8.465 0-0.356 0.009-0.667 0.038-1.014h-13.983l21.081-18.325h34.909l-3.227 2.518v4.445c1.196 0.156 1.072 0.873 1.072 1.736zM48.233 57.004c-0.403-0.073-0.967-0.115-1.697-0.115-1.572 0-3.123 0.138-4.639 0.414-1.519 0.269-3.018 0.726-4.498 1.372-1.484 0.638-2.683 1.584-3.593 2.824-0.92 1.243-1.372 2.706-1.372 4.393 0 1.607 0.403 3.035 1.208 4.287 0.802 1.237 1.866 2.211 3.182 2.906 1.319 0.696 2.7 1.219 4.146 1.566 1.449 0.344 2.918 0.52 4.416 0.52 2.965 0 5.521-0.667 7.66-2.001 2.136-1.337 3.206-3.396 3.206-6.179 0-0.585-0.079-1.161-0.244-1.725-0.167-0.567-0.332-1.055-0.497-1.46-0.162-0.397-0.473-0.873-0.931-1.425-0.455-0.553-0.808-0.961-1.043-1.231-0.238-0.279-0.69-0.679-1.349-1.208-0.655-0.532-1.072-0.861-1.26-0.984-0.185-0.126-0.661-0.479-1.431-1.043-0.767-0.567-1.19-0.873-1.26-0.908z"></path>
</svg>
