<!-- Generated by IcoMoon.io -->
<svg version="1.1" xmlns="http://www.w3.org/2000/svg" width="878" height="1024" viewBox="0 0 878 1024">
<title></title>
<g id="icomoon-ignore">
</g>
<path d="M23.54 12.587c-0.724-0.81-1.564-1.21-2.514-1.21-1.075 0-1.898 0.387-2.474 1.159-0.574 0.77-0.862 1.7-0.862 2.796 0 0.931 0.157 1.881 0.474 2.851 0.313 0.969 0.828 1.832 1.547 2.592 0.718 0.764 1.551 1.144 2.5 1.144 1.058 0 1.881-0.356 2.474-1.063 0.589-0.707 0.885-1.599 0.885-2.675 0-0.917-0.157-1.875-0.471-2.876-0.312-1.003-0.833-1.91-1.559-2.715zM43.522 2.561c-1.688-1.691-3.719-2.534-6.098-2.534h-28.767c-2.379 0-4.41 0.842-6.098 2.534-1.691 1.685-2.534 3.719-2.534 6.098v28.767c0 2.379 0.842 4.413 2.534 6.101 1.691 1.683 3.725 2.528 6.098 2.528h28.767c2.379 0 4.412-0.848 6.098-2.534 1.691-1.691 2.534-3.719 2.534-6.098v-28.767c0-2.379-0.845-4.413-2.534-6.098zM34.055 11.959v10.282c0 0.476-0.39 0.865-0.865 0.865h-0.318c-0.476 0-0.865-0.39-0.865-0.865v-10.282c0-0.422-0.062-0.776 0.529-0.851v-1.369l-4.548 3.731c0.053 0.096 0.102 0.16 0.151 0.24 0.399 0.707 0.603 1.588 0.603 2.664 0 0.825-0.137 1.564-0.416 2.218-0.278 0.655-0.615 1.187-1.009 1.599s-0.787 0.79-1.182 1.13c-0.396 0.341-0.733 0.695-1.009 1.064-0.278 0.367-0.416 0.747-0.416 1.141s0.18 0.795 0.54 1.199c0.358 0.404 0.796 0.796 1.317 1.185 0.52 0.384 1.041 0.813 1.56 1.277s0.957 1.061 1.314 1.786c0.361 0.727 0.54 1.53 0.54 2.41 0 1.161-0.295 2.212-0.888 3.144s-1.363 1.671-2.313 2.215c-0.951 0.548-1.967 0.96-3.052 1.239-1.087 0.275-2.166 0.416-3.242 0.416-0.681 0-1.366-0.053-2.054-0.16-0.692-0.108-1.386-0.298-2.083-0.566-0.701-0.269-1.32-0.6-1.855-0.997-0.54-0.393-0.972-0.9-1.305-1.518s-0.497-1.311-0.497-2.083c0-0.914 0.255-1.763 0.767-2.554 0.511-0.784 1.187-1.441 2.031-1.962 1.469-0.914 3.774-1.478 6.907-1.691-0.718-0.897-1.078-1.74-1.078-2.528 0-0.45 0.117-0.931 0.35-1.449-0.376 0.053-0.761 0.082-1.155 0.082-1.685 0-3.107-0.548-4.263-1.651-1.156-1.101-1.731-2.479-1.731-4.145 0-0.174 0.004-0.327 0.019-0.497h-6.847l10.322-8.972h17.092l-1.58 1.233v2.177c0.586 0.076 0.525 0.427 0.525 0.851zM23.635 27.933c-0.197-0.036-0.474-0.056-0.83-0.056-0.77 0-1.53 0.068-2.272 0.203-0.744 0.131-1.478 0.356-2.203 0.672-0.727 0.312-1.314 0.776-1.76 1.383-0.45 0.609-0.672 1.326-0.672 2.152 0 0.787 0.197 1.487 0.592 2.1 0.393 0.606 0.914 1.083 1.559 1.423 0.646 0.341 1.323 0.597 2.031 0.767 0.71 0.168 1.429 0.255 2.163 0.255 1.452 0 2.704-0.327 3.751-0.98 1.046-0.655 1.57-1.662 1.57-3.026 0-0.286-0.039-0.569-0.119-0.845-0.082-0.278-0.163-0.517-0.243-0.715-0.079-0.194-0.232-0.427-0.456-0.698s-0.396-0.471-0.511-0.603c-0.117-0.137-0.338-0.332-0.661-0.592-0.321-0.261-0.525-0.422-0.617-0.482-0.091-0.062-0.324-0.235-0.701-0.511-0.376-0.278-0.583-0.427-0.617-0.445z"></path>
</svg>
